<svg xmlns="http://www.w3.org/2000/svg" width="79" height="100" viewBox="0 0 79 100">
    <defs>
        <linearGradient id="a" x1="0%" y1="12.997%" y2="84.98%">
            <stop offset="0%" stop-color="#506075"/>
            <stop offset="50.158%" stop-color="#00D7AF"/>
            <stop offset="100%" stop-color="#506075"/>
        </linearGradient>
    </defs>
    <path fill="url(#a)" fill-rule="evenodd" d="M1266.703 1211.131c-.561.32-1.023 1.103-1.025 1.74-.013 4.091.01 8.144.014 12.217.002 2.689-1.939 3.793-4.314 2.455a4136.19 4136.19 0 0 1-18.947-10.726c-.787-.45-1.431-1.55-1.431-2.443v-16.705l.768.432-.768-.437v-26.47c0-.895.646-1.996 1.435-2.445l21.804-12.41c.794-.452 2.094-.452 2.888 0l21.804 12.41c.789.45 1.435 1.55 1.435 2.445v24.841c0 .896-.646 1.997-1.435 2.446l-22.228 12.65zm28.62-12.002c.012-4.091-.011-8.144-.015-12.217-.002-2.689 1.939-3.793 4.314-2.455a4136.19 4136.19 0 0 1 18.947 10.726c.787.45 1.431 1.55 1.431 2.443v16.705l-.768-.432.768.437v26.47c0 .895-.646 1.996-1.435 2.445l-21.804 12.41c-.794.452-2.094.452-2.888 0l-21.804-12.41c-.789-.45-1.435-1.55-1.435-2.445v-24.841c0-.896.646-1.997 1.435-2.446l22.228-12.65c.561-.32 1.023-1.103 1.025-1.74z" transform="translate(-1241 -1156)"/>
</svg>
