<svg xmlns="http://www.w3.org/2000/svg" width="79" height="100" viewBox="0 0 79 100">
    <path fill="#FFF" fill-rule="evenodd" d="M25.559 55.131c-.559.32-1.018 1.103-1.02 1.74-.012 4.091.01 8.144.014 12.217.002 2.689-1.928 3.793-4.29 2.455a4107.337 4107.337 0 0 1-18.84-10.726C.64 60.367 0 59.267 0 58.374V41.669l.763.432L0 41.664v-26.47c0-.895.642-1.996 1.427-2.445L23.108.339c.79-.452 2.083-.452 2.873 0l21.68 12.41c.786.45 1.428 1.55 1.428 2.445v24.841c0 .896-.642 1.997-1.427 2.446L25.559 55.13zM54.018 43.13c.012-4.091-.011-8.144-.014-12.217-.003-2.689 1.927-3.793 4.29-2.455a4107.345 4107.345 0 0 1 18.84 10.726c.782.45 1.423 1.55 1.423 2.443v16.705l-.764-.432.764.437v26.47c0 .895-.643 1.996-1.428 2.445l-21.68 12.41c-.79.452-2.083.452-2.873 0L30.895 87.25c-.785-.45-1.427-1.55-1.427-2.445V59.965c0-.896.642-1.997 1.427-2.446l22.103-12.65c.558-.32 1.018-1.103 1.02-1.74z"/>
</svg>
