<svg xmlns="http://www.w3.org/2000/svg" width="404" height="100" viewBox="0 0 404 100">
    <g fill="#506075" fill-rule="evenodd">
        <path d="M25.559 55.131c-.559.32-1.018 1.103-1.02 1.74-.012 4.091.01 8.144.014 12.217.002 2.689-1.928 3.793-4.29 2.455a4107.337 4107.337 0 0 1-18.84-10.726C.64 60.367 0 59.267 0 58.374V41.669l.763.432L0 41.664v-26.47c0-.895.642-1.996 1.427-2.445L23.108.339c.79-.452 2.083-.452 2.873 0l21.68 12.41c.786.45 1.428 1.55 1.428 2.445v24.841c0 .896-.642 1.997-1.427 2.446L25.559 55.13zM54.018 43.13c.012-4.091-.011-8.144-.014-12.217-.003-2.689 1.927-3.793 4.29-2.455a4107.345 4107.345 0 0 1 18.84 10.726c.782.45 1.423 1.55 1.423 2.443v16.705l-.764-.432.764.437v26.47c0 .895-.643 1.996-1.428 2.445l-21.68 12.41c-.79.452-2.083.452-2.873 0L30.895 87.25c-.785-.45-1.427-1.55-1.427-2.445V59.965c0-.896.642-1.997 1.427-2.446l22.103-12.65c.558-.32 1.018-1.103 1.02-1.74zM104.775 42H99.69V12.39h11.025c1.32 0 2.587.217 3.802.652a10.503 10.503 0 0 1 3.263 1.868 9.349 9.349 0 0 1 2.295 2.992c.54 1.126.81 2.303.81 3.533a8.02 8.02 0 0 1-.81 3.555c-.54 1.11-1.305 2.115-2.295 3.015-.96.81-2.047 1.432-3.263 1.867a11.196 11.196 0 0 1-3.802.653h-5.985L104.775 42zm-.045-24.525v7.965h5.985c1.53 0 2.775-.435 3.735-1.305.9-.72 1.35-1.62 1.35-2.7 0-1.05-.45-1.95-1.35-2.7-.99-.84-2.235-1.26-3.735-1.26h-5.985zm43.64 24.795c-2.7 0-5.197-.675-7.493-2.025a15.108 15.108 0 0 1-5.467-5.49c-1.35-2.31-2.025-4.83-2.025-7.56 0-2.73.675-5.25 2.025-7.56a15.108 15.108 0 0 1 5.468-5.49c2.295-1.35 4.792-2.025 7.492-2.025s5.197.675 7.493 2.025a15.108 15.108 0 0 1 5.467 5.49c1.35 2.31 2.025 4.83 2.025 7.56 0 2.73-.675 5.25-2.025 7.56a15.108 15.108 0 0 1-5.468 5.49c-2.295 1.35-4.792 2.025-7.492 2.025zm0-25.11c-1.8 0-3.457.45-4.972 1.35a9.935 9.935 0 0 0-3.6 3.667 9.924 9.924 0 0 0-1.328 5.018c0 1.8.442 3.472 1.328 5.017a9.935 9.935 0 0 0 3.6 3.668c1.515.9 3.172 1.35 4.972 1.35 1.8 0 3.457-.45 4.972-1.35a9.987 9.987 0 0 0 3.6-3.645c.886-1.53 1.328-3.21 1.328-5.04s-.442-3.51-1.328-5.04a9.987 9.987 0 0 0-3.6-3.645c-1.515-.9-3.172-1.35-4.972-1.35zM196.015 42h-18.72V12.39h5.085v24.57h13.635V42zm20.51 0h-5.085V12.39h5.085V42zm29.6.27c-2.7 0-5.197-.682-7.493-2.048a15.108 15.108 0 0 1-5.445-5.512c-1.335-2.31-2.002-4.83-2.002-7.56 0-2.73.667-5.25 2.002-7.56a14.934 14.934 0 0 1 5.445-5.49c2.296-1.35 4.793-2.025 7.493-2.025 2.1 0 4.117.427 6.053 1.283a14.425 14.425 0 0 1 5.017 3.667L253.46 20.4a10.072 10.072 0 0 0-3.353-2.43 9.655 9.655 0 0 0-3.982-.855c-1.8 0-3.457.45-4.972 1.35a9.935 9.935 0 0 0-3.6 3.668 9.924 9.924 0 0 0-1.328 5.017c0 1.8.442 3.472 1.328 5.017a10.054 10.054 0 0 0 3.622 3.69 9.476 9.476 0 0 0 4.95 1.373c1.5 0 2.917-.33 4.252-.99a10.334 10.334 0 0 0 3.443-2.745l3.96 3.15a14.79 14.79 0 0 1-5.175 4.14c-2.04.99-4.2 1.485-6.48 1.485zm38.24-15.525l8.91-14.355h6.075L286.885 32.1V42h-5.04v-9.9l-12.33-19.71h6.03l8.82 14.355zM317.835 42h-5.085V12.39h11.025c1.32 0 2.587.217 3.803.652a10.503 10.503 0 0 1 3.262 1.868 9.349 9.349 0 0 1 2.295 2.992c.54 1.126.81 2.303.81 3.533a8.02 8.02 0 0 1-.81 3.555c-.54 1.11-1.305 2.115-2.295 3.015-.96.81-2.047 1.432-3.262 1.867a11.196 11.196 0 0 1-3.803.653h-5.985L317.835 42zm-.045-24.525v7.965h5.985c1.53 0 2.775-.435 3.735-1.305.9-.72 1.35-1.62 1.35-2.7 0-1.05-.45-1.95-1.35-2.7-.99-.84-2.235-1.26-3.735-1.26h-5.985zm32.075 20.475l-1.89 4.05h-5.58l13.725-29.61L369.17 42h-5.535l-1.8-4.05h-11.97zm6.12-13.275l-3.78 8.19h7.38l-3.6-8.19zM401.605 42h-18.72V12.39h5.085v24.57h13.635V42zM123.045 86.675l-18.27-18.27V86h-5.04V55.94l18.27 18.27V56.39h5.04v30.285zm42.55-.675h-18.72V56.39h18.72v5.085H151.96v7.155h10.26v5.085h-10.26v7.245h13.635V86zm45.115-29.61v5.085h-8.91V86h-5.04V61.475h-8.865V56.39h22.815zm45.34 16.02l5.355-16.02h5.355l-10.125 30.285-7.74-17.82-7.74 17.82L230.94 56.39h5.355l5.4 16.11 7.2-16.56 7.155 16.47zm44.395 13.86c-2.7 0-5.197-.675-7.493-2.025a15.108 15.108 0 0 1-5.467-5.49c-1.35-2.31-2.025-4.83-2.025-7.56 0-2.73.675-5.25 2.025-7.56a15.108 15.108 0 0 1 5.467-5.49c2.296-1.35 4.793-2.025 7.493-2.025s5.197.675 7.493 2.025a15.108 15.108 0 0 1 5.467 5.49c1.35 2.31 2.025 4.83 2.025 7.56 0 2.73-.675 5.25-2.025 7.56a15.108 15.108 0 0 1-5.467 5.49c-2.296 1.35-4.793 2.025-7.493 2.025zm0-25.11c-1.8 0-3.457.45-4.972 1.35a9.935 9.935 0 0 0-3.6 3.667 9.924 9.924 0 0 0-1.328 5.018c0 1.8.442 3.472 1.327 5.018a9.935 9.935 0 0 0 3.6 3.667c1.516.9 3.173 1.35 4.973 1.35 1.8 0 3.457-.45 4.973-1.35a9.987 9.987 0 0 0 3.6-3.645c.885-1.53 1.327-3.21 1.327-5.04s-.442-3.51-1.328-5.04a9.987 9.987 0 0 0-3.6-3.645c-1.515-.9-3.172-1.35-4.972-1.35zM352.4 86l-9.945-13.05V86h-5.04l-.045-29.61h10.845c1.44 0 2.797.232 4.073.697a10.076 10.076 0 0 1 3.352 2.003 8.735 8.735 0 0 1 2.205 2.902 8.06 8.06 0 0 1 .765 3.443c0 1.83-.585 3.51-1.755 5.04-1.02 1.29-2.28 2.22-3.78 2.79-.54.21-1.162.39-1.868.54-.705.15-1.222.225-1.552.225l9 11.97H352.4zm-9.945-24.525v7.965h4.41c1.77 0 3.18-.24 4.23-.72a4.22 4.22 0 0 0 1.71-1.305c.48-.6.72-1.26.72-1.98 0-.99-.42-1.86-1.26-2.61-.99-.9-2.34-1.35-4.05-1.35h-5.76zM403.725 86h-6.255l-8.055-10.98-8.37 11.655V56.39h5.04v14.49l10.44-14.49h6.21l-10.26 14.265L403.725 86z"/>
    </g>
</svg>
